<svg width="198" height="103" viewBox="0 0 198 103" fill="none" xmlns="http://www.w3.org/2000/svg">
<path d="M20.7125 86.4153C21.3226 86.3773 22.0075 86.2 22.767 85.8897C23.5265 85.5794 24.2985 84.9968 25.0954 84.1483C25.4503 83.7493 25.6557 83.3947 25.7118 83.0654C25.7865 82.6222 25.5997 82.3625 25.1639 82.2865C25.1328 82.2865 25.1016 82.2865 25.0767 82.2865C25.0518 82.2865 25.0207 82.2865 24.9896 82.2865C23.3896 84.5979 21.2791 85.5351 18.658 85.0918C18.0043 84.9842 17.4067 84.8132 16.865 84.5789C16.3234 84.3446 15.8378 84.0343 15.3958 83.648C14.96 83.2617 14.5615 82.7741 14.2129 82.1852C13.858 81.5963 13.5405 80.8997 13.2603 80.0765L13.1109 80.0512C12.9242 80.0195 12.7623 80.0385 12.6129 80.1018C12.4635 80.1652 12.3701 80.3045 12.3389 80.5261C12.2891 80.8174 12.3389 81.1404 12.4884 81.5013C12.7561 82.1789 13.0736 82.7741 13.4284 83.2934C13.7833 83.8127 14.1631 84.2559 14.5553 84.6295C14.9537 85.0032 15.3584 85.3008 15.7693 85.5288C16.1802 85.7567 16.56 85.915 16.9086 86.01L15.9187 90.8164C15.4331 91.0317 14.9351 91.2216 14.4183 91.3799C13.9016 91.5383 13.3288 91.6459 12.6938 91.7092C12.0588 91.7726 11.3553 91.7789 10.5771 91.7346C9.79885 91.6902 8.91481 91.5889 7.92492 91.4179C6.93503 91.247 6.01985 91 5.02374 90.639C4.02763 90.2781 3.13735 89.8095 2.35291 89.2269C1.56847 88.6443 0.945903 87.9668 0.497652 87.1879C0.0431753 86.409 -0.100016 85.5161 0.0680781 84.5092C0.155238 83.9773 0.298429 83.2617 0.497652 82.3562C0.696874 81.4507 0.933451 80.4248 1.21983 79.2786C1.49999 78.1325 1.81128 76.8913 2.14746 75.5615C2.48365 74.2317 2.83229 72.8892 3.18716 71.5404C3.54202 70.1852 3.90311 68.8491 4.25175 67.5193C4.60662 66.1894 4.94281 64.9609 5.26654 63.8211C5.59028 62.6813 5.87666 61.6681 6.13814 60.7815C6.39339 59.895 6.60507 59.2047 6.77316 58.7045C7.33348 58.3435 7.94982 58.0586 8.6222 57.8559C9.29457 57.6533 9.98563 57.5203 10.6954 57.4507C11.4051 57.381 12.1086 57.3747 12.8121 57.4127C13.5156 57.4507 14.1818 57.5266 14.823 57.6343C15.9623 57.8243 17.0643 58.1409 18.1226 58.5842C19.181 59.0274 20.0401 59.5087 20.6938 60.0406L21.3164 64.9863L19.8222 68.6021C19.7662 68.7351 19.7226 68.8554 19.6853 68.9757C19.6479 69.0897 19.623 69.21 19.6043 69.3303C19.511 69.9129 19.7973 70.2739 20.4635 70.4195L24.504 60.6992C24.8153 60.5916 25.2075 60.4902 25.6806 60.3952C26.1538 60.3003 26.6767 60.2306 27.2433 60.1863C27.8098 60.1419 28.4199 60.1293 29.0736 60.1546C29.7273 60.1736 30.3873 60.2433 31.0596 60.3573C32.255 60.5599 33.2822 60.8322 34.1476 61.1805C35.013 61.5288 35.7165 61.972 36.2581 62.5103C36.7997 63.0485 37.192 63.7008 37.4285 64.4607C37.6651 65.2206 37.7647 66.1198 37.7149 67.1646C37.6589 68.2602 37.5966 69.5836 37.5219 71.1351C37.4534 72.6865 37.3725 74.3266 37.2791 76.0554C37.1857 77.7842 37.0923 79.5383 36.9927 81.3113C36.8931 83.0844 36.7935 84.7499 36.6877 86.3013C36.5818 87.8528 36.4822 89.2269 36.3826 90.4237C36.283 91.6206 36.1896 92.4945 36.0962 93.058C33.9048 94.7425 31.0596 95.2934 27.5483 94.7045C26.4402 94.5208 25.4378 94.2549 24.5476 93.9129C23.6573 93.571 22.9102 93.153 22.3063 92.6528C21.7024 92.1588 21.2542 91.5952 20.9491 90.962C20.644 90.3288 20.5257 89.6259 20.5818 88.847L20.7436 86.4026L20.7125 86.4153Z" fill="#FF8A00"/>
<path d="M41.4875 72.6802C42.0292 72.0976 42.658 71.5277 43.3864 70.9768C44.1086 70.4259 44.893 69.9193 45.7335 69.457C46.574 68.9947 47.4642 68.5768 48.3981 68.2032C49.3319 67.8295 50.2907 67.5193 51.2619 67.2723C52.5506 66.943 53.8518 66.7404 55.1779 66.6517C56.4977 66.5631 57.7429 66.639 58.9071 66.8797C60.0713 67.1203 61.1234 67.5446 62.0635 68.1525C63.0036 68.7604 63.7382 69.5836 64.2799 70.6285L75.7725 92.9504C75.2558 94.1346 74.3904 95.2174 73.1764 96.2053C71.9624 97.1931 70.3063 97.953 68.2083 98.485C67.2806 98.7193 66.3966 98.8586 65.5437 98.8966C64.6908 98.9346 63.9188 98.8712 63.2153 98.7003C62.5118 98.5293 61.9016 98.2507 61.3787 97.858C60.8495 97.4654 60.451 96.9462 60.1647 96.3066L58.8635 93.3683C59.374 93.2227 59.8658 93.0264 60.339 92.7921C60.8184 92.5578 61.2355 92.3045 61.6028 92.0448C61.9701 91.7852 62.2565 91.5193 62.4619 91.2533C62.6674 90.9873 62.7483 90.753 62.6985 90.5504C62.63 90.2844 62.4682 90.0881 62.2129 89.9741C61.9701 90.2654 61.6713 90.5567 61.3164 90.829C60.9616 91.1013 60.5818 91.3609 60.1709 91.5889C59.76 91.8169 59.3429 92.0195 58.9258 92.1905C58.5024 92.3615 58.104 92.4945 57.7242 92.5894C57.0145 92.7731 56.3732 92.8871 55.7942 92.9314C55.2152 92.9821 54.7047 92.9884 54.2627 92.9631C53.8144 92.9314 53.4285 92.8744 53.086 92.7921C52.7498 92.7098 52.4635 92.6148 52.2269 92.5135C52.1833 92.6148 52.146 92.7224 52.1273 92.8491C52.1024 92.9694 52.1086 93.096 52.1397 93.2354C52.202 93.4887 52.3888 93.685 52.6938 93.8306C52.9989 93.9762 53.3911 94.0712 53.858 94.1219C54.325 94.1726 54.8479 94.1789 55.4269 94.1346C56.0059 94.0966 56.6036 94.0142 57.2199 93.8939C57.6059 95.0464 57.9483 95.952 58.2471 96.6169C58.5398 97.2818 58.7701 97.6934 58.932 97.8454C58.851 98.1683 58.6331 98.5483 58.2783 98.9916C57.9234 99.4285 57.4503 99.8781 56.8713 100.328C56.2861 100.777 55.6012 101.202 54.8168 101.601C54.0261 101.999 53.1607 102.316 52.2207 102.557C51.0502 102.854 49.9109 103 48.8028 103C47.6946 103 46.6985 102.854 45.802 102.569C44.9055 102.291 44.1459 101.866 43.5171 101.303C42.8883 100.739 42.4712 100.036 42.2658 99.2005C42.2222 99.0169 42.1848 98.8269 42.1537 98.6243C42.1226 98.428 42.1101 98.219 42.1101 98.01L41.4875 72.6802ZM56.3234 82.6918C55.8938 81.7293 55.5514 80.9631 55.2962 80.3805C55.0409 79.8042 54.823 79.3736 54.6362 79.0886C54.4495 78.8037 54.2876 78.6327 54.1382 78.5694C53.9888 78.5061 53.8269 78.4997 53.6464 78.5504C53.5281 78.5821 53.4285 78.6264 53.3351 78.6834C53.2417 78.7404 53.1607 78.7974 53.086 78.8543L55.2775 83.705C55.3584 83.7557 55.4705 83.781 55.6012 83.781C55.732 83.781 55.8502 83.7747 55.9499 83.7493C56.0993 83.7113 56.2362 83.6543 56.3545 83.5784C56.479 83.5024 56.5662 83.439 56.6222 83.3884L56.3172 82.6918H56.3234Z" fill="#FF8A00"/>
<path d="M106.976 75.7704C107.511 78.3794 107.362 80.6021 106.528 82.4385C105.693 84.2749 104.106 85.5794 101.759 86.3646C100.999 86.6179 100.202 86.7826 99.3805 86.8586C98.5525 86.9346 97.7058 86.8586 96.8342 86.6243C95.9626 86.3963 95.0785 85.9784 94.1882 85.3704C93.298 84.7625 92.4201 83.9076 91.5548 82.7868L89.905 80.6591C89.2699 80.8554 88.747 80.9884 88.3423 81.058C87.9376 81.1277 87.5703 81.191 87.2466 81.248C87.2154 81.3113 87.1905 81.3937 87.1781 81.4887C87.1656 81.5836 87.1781 81.704 87.2279 81.8559C87.2902 82.0522 87.4769 82.1789 87.782 82.2359C88.087 82.2929 88.6411 82.2106 89.4505 81.9952L91.9781 85.0918L92.6505 87.1879C91.9532 88.1504 91.038 89.0053 89.905 89.7525C88.7656 90.5061 87.5081 91.1076 86.1384 91.5699C85.1361 91.9055 84.1835 92.1082 83.287 92.1778C82.3843 92.2475 81.5625 92.1778 80.8092 91.9499C80.0559 91.7282 79.4084 91.3546 78.8668 90.8354C78.3251 90.3161 77.9142 89.6195 77.6279 88.7456L70.0823 65.2966C69.9578 64.9166 70.0263 64.4797 70.2815 63.9857C70.5368 63.4918 70.929 62.9726 71.4706 62.428C72.0123 61.8834 72.6784 61.3325 73.4629 60.7689C74.2473 60.2053 75.1065 59.6607 76.0403 59.1351C76.9742 58.6095 77.9578 58.1092 78.9975 57.647C80.0372 57.1847 81.0831 56.7731 82.1353 56.4248C84.4824 55.6459 86.7049 55.19 88.803 55.057C90.9011 54.924 92.7999 55.133 94.4995 55.6902C96.1991 56.2475 97.6684 57.1404 98.8949 58.3815C100.128 59.6227 101.061 61.2248 101.696 63.2005C102.07 64.353 102.232 65.4739 102.201 66.5567C102.163 67.6459 101.977 68.6654 101.64 69.6153C101.304 70.5652 100.825 71.439 100.215 72.2369C99.6046 73.0348 98.9011 73.7187 98.1229 74.2887C98.2163 74.5863 98.3657 74.7636 98.5649 74.8269C98.7641 74.8902 98.9758 74.8839 99.1999 74.8079C99.4241 74.7319 99.7416 74.5356 100.14 74.219C100.538 73.9024 100.956 73.4401 101.385 72.8195L106.988 75.7894L106.976 75.7704ZM87.0411 71.3377C87.1034 71.3567 87.1843 71.3504 87.2902 71.3251C87.396 71.2997 87.4707 71.2807 87.5018 71.2681C87.8878 71.1414 88.1244 70.9261 88.2053 70.6222C88.2863 70.3245 88.2365 69.8939 88.0559 69.3303L87.7695 68.4438C87.5828 67.8675 87.3773 67.4686 87.1594 67.2533C86.9353 67.038 86.6427 66.9873 86.2691 67.114C86.1882 67.1393 86.0948 67.1836 85.9828 67.2343C85.8769 67.2913 85.796 67.3419 85.74 67.3989C85.796 67.5256 85.852 67.6649 85.9018 67.8105L86.0512 68.2792L87.0349 71.3377H87.0411Z" fill="#FF8A00"/>
<path d="M122.316 90.3288C119.838 89.5625 117.715 88.4923 115.935 87.1182C114.154 85.7441 112.772 84.1103 111.782 82.2169C110.792 80.3235 110.226 78.2021 110.082 75.8528C109.939 73.5034 110.275 70.9768 111.085 68.2728C111.894 65.5689 113.089 63.2069 114.596 61.4211C116.103 59.6354 117.796 58.2802 119.682 57.362C121.569 56.4438 123.567 55.9435 125.684 55.8549C127.801 55.7662 129.886 56.0449 131.935 56.6781C133.983 57.3113 135.819 58.1789 137.382 59.2617C138.945 60.3446 140.196 61.5478 141.142 62.8712C142.089 64.1947 142.711 65.6005 143.016 67.0887C143.315 68.5768 143.247 70.0586 142.805 71.534C142.45 72.7119 141.964 73.6554 141.342 74.3646C140.719 75.0739 139.997 75.5931 139.181 75.9098C138.366 76.2264 137.457 76.3657 136.454 76.3277C135.452 76.2897 134.406 76.0997 133.317 75.7641C132.632 75.5551 131.978 75.2449 131.362 74.8459C130.746 74.447 130.191 74.0164 129.706 73.5604C129.22 73.1045 128.828 72.6485 128.523 72.2053C128.218 71.7557 128.05 71.3947 128.012 71.1098C128.143 70.6792 128.293 70.1852 128.473 69.6216C128.647 69.0644 128.84 68.4945 129.046 67.9245C129.002 67.8929 128.946 67.8675 128.872 67.8422L128.71 67.7916C128.467 67.7156 128.255 67.7282 128.075 67.8232C127.894 67.9182 127.707 68.1335 127.521 68.4691C127.334 68.7984 127.135 69.267 126.929 69.8749C126.724 70.4828 126.475 71.2554 126.195 72.1989C125.815 73.4718 125.516 74.5736 125.298 75.4918C125.086 76.41 124.943 77.1763 124.868 77.7778C124.794 78.3794 124.794 78.8354 124.856 79.1456C124.924 79.4559 125.049 79.6396 125.223 79.6966C125.385 79.7472 125.547 79.7536 125.703 79.7092L126.381 77.4485C127.072 77.2269 127.875 77.0876 128.803 77.0306C129.731 76.9736 130.689 76.9799 131.698 77.0433C132.7 77.1129 133.721 77.2332 134.749 77.4169C135.776 77.6005 136.741 77.8285 137.637 78.1071C137.936 78.7087 138.167 79.4179 138.316 80.2475C138.472 81.0707 138.559 81.9383 138.577 82.8438C138.596 83.7493 138.565 84.6422 138.478 85.5288C138.391 86.4153 138.247 87.2069 138.061 87.9098C137.569 88.429 136.828 88.9546 135.851 89.4929C134.873 90.0311 133.703 90.4617 132.339 90.791C130.976 91.1203 129.444 91.2723 127.745 91.2533C126.045 91.2343 124.233 90.924 122.31 90.3288H122.316Z" fill="#FF8A00"/>
<path d="M158.954 100.796C157.522 100.796 156.109 100.644 154.714 100.34C153.32 100.036 152 99.5742 150.755 98.9536C149.51 98.333 148.37 97.5414 147.318 96.5916C146.272 95.6417 145.363 94.5145 144.598 93.2164C143.832 91.9182 143.234 90.4364 142.811 88.7773C142.388 87.1182 142.17 85.2628 142.17 83.2174C142.17 80.1905 142.63 77.5689 143.546 75.3589C144.461 73.1488 145.693 71.3251 147.225 69.8813C148.756 68.4375 150.525 67.3673 152.523 66.6707C154.521 65.9805 156.613 65.6322 158.792 65.6322C161.382 65.6322 163.704 66.0628 165.765 66.9177C167.826 67.7726 169.569 68.9757 171.001 70.5145C172.433 72.0533 173.529 73.9087 174.294 76.0744C175.06 78.2401 175.446 80.6211 175.446 83.2174C175.446 86.3013 175.017 88.9483 174.157 91.1647C173.298 93.381 172.122 95.2048 170.634 96.6296C169.146 98.0544 167.396 99.1119 165.398 99.7831C163.399 100.461 161.245 100.796 158.948 100.796H158.954ZM159.975 82.0459C159.975 81.2164 159.957 80.5008 159.925 79.9056C159.888 79.3103 159.832 78.81 159.745 78.4111C159.658 78.0501 159.546 77.8032 159.402 77.6829C159.259 77.5625 159.091 77.4992 158.904 77.4992C158.718 77.4992 158.574 77.5309 158.469 77.5879C158.369 77.6512 158.282 77.7019 158.213 77.7588C158.232 78.0691 158.257 78.3604 158.288 78.6264C158.319 78.8924 158.35 79.1963 158.375 79.5383C158.4 79.8802 158.425 80.2665 158.437 80.7098C158.456 81.153 158.462 81.6913 158.462 82.3309V84.0216C158.462 84.6612 158.456 85.2058 158.437 85.6428C158.419 86.086 158.4 86.4723 158.375 86.8143C158.35 87.1562 158.319 87.4538 158.288 87.7261C158.251 87.9921 158.226 88.2834 158.213 88.5937C158.282 88.6443 158.369 88.7013 158.469 88.7647C158.568 88.828 158.718 88.8533 158.904 88.8533C159.091 88.8533 159.259 88.79 159.402 88.6697C159.546 88.5493 159.664 88.3087 159.745 87.9414C159.832 87.5425 159.888 87.0422 159.925 86.447C159.957 85.8517 159.975 85.1362 159.975 84.3066V82.0459Z" fill="#FF8A00"/>
<path d="M190.668 65.8791C191.004 67.133 191.247 68.3361 191.39 69.4886C191.533 70.6412 191.614 71.743 191.633 72.7879C191.652 73.8327 191.614 74.8142 191.527 75.7261C191.44 76.638 191.328 77.4802 191.203 78.2528C190.836 78.1958 190.425 78.1641 189.977 78.1641C189.529 78.1641 189.143 78.2084 188.831 78.2971C188.551 78.3731 188.327 78.5124 188.165 78.715C187.997 78.9113 187.96 79.1836 188.053 79.5129L188.078 79.6142C189.031 79.4179 189.971 79.4116 190.892 79.5826C191.813 79.7536 192.666 80.0828 193.451 80.5641C194.235 81.0454 194.914 81.666 195.493 82.4322C196.072 83.1984 196.489 84.0533 196.744 85.0032C196.999 85.953 197.074 86.9726 196.931 87.9541C196.788 88.9356 196.483 89.8412 196.01 90.677C195.536 91.5066 194.914 92.2348 194.148 92.8554C193.376 93.476 192.504 93.9193 191.521 94.1979C190.537 94.4765 189.591 94.5335 188.638 94.4005C187.686 94.2612 186.796 93.9572 185.98 93.4886C185.164 93.02 184.448 92.3931 183.832 91.6206C183.216 90.848 182.78 89.9741 182.512 88.9863C182.145 87.6185 182.145 86.2823 182.512 84.9715C182.886 83.667 183.527 82.5462 184.436 81.609C183.708 80.8807 183.004 80.0575 182.325 79.1393C181.647 78.2274 181.012 77.2522 180.427 76.22C179.841 75.1879 179.312 74.105 178.845 72.9715C178.378 71.838 177.986 70.6855 177.675 69.514L175.471 61.3514C175.708 61.0538 176.019 60.7372 176.392 60.4079C176.772 60.0786 177.208 59.762 177.694 59.4517C178.185 59.1414 178.715 58.8628 179.281 58.6032C179.848 58.3435 180.433 58.1346 181.043 57.9636C182.257 57.6216 183.346 57.4823 184.305 57.5393C185.264 57.5963 186.117 57.8686 186.858 58.3625C187.599 58.8565 188.246 59.591 188.8 60.5662C189.354 61.5414 189.834 62.7826 190.238 64.2834L190.674 65.8855L190.668 65.8791Z" fill="#FF8A00"/>
<path d="M91.2675 0C92.0124 0.869054 92.1987 1.17943 92.8815 2.42094C93.6885 3.84867 94.4334 5.2764 95.1162 6.76621C96.7302 10.1183 98.3441 13.5324 99.9581 16.8845C100.765 18.4984 101.51 20.1124 102.379 21.7264C102.627 22.223 102.938 22.7816 103.248 23.2782C103.372 23.5265 103.558 23.7748 103.745 24.0231C103.993 24.3335 104.179 24.3956 104.552 24.0852C104.862 23.8369 105.11 23.5886 105.359 23.3403C105.793 22.8437 106.228 22.3471 106.662 21.7884C108.09 20.0503 109.394 18.2501 110.759 16.45C111.814 15.0843 112.808 13.7186 113.863 12.353C114.173 11.9185 114.546 11.546 114.918 11.1115C115.104 10.8632 115.353 10.677 115.539 10.4907C115.663 10.3666 115.787 10.3045 115.911 10.3666C116.036 10.4286 116.098 10.5528 116.098 10.677C116.098 11.2356 116.098 11.7943 116.036 12.353C115.787 14.3394 115.539 16.3258 115.167 18.3122C114.794 20.2986 114.484 22.3471 114.111 24.3335C113.739 26.5062 113.304 28.6167 112.932 30.7893C112.559 32.8999 112.125 35.0725 111.752 37.1831C111.442 38.6729 111.194 40.1627 110.945 41.5904C110.945 41.6525 110.883 41.7146 110.883 41.8387C110.821 42.3354 110.573 42.7078 110.2 42.9561C109.642 43.3906 109.083 43.6389 108.338 43.6389H101.51C94.5575 43.5769 87.543 43.5769 80.5906 43.5148C78.4179 43.5148 76.2453 43.4527 74.0727 43.3906H73.8864C73.0174 43.3906 72.3346 42.9561 71.838 42.3353C71.6517 42.1491 71.5897 41.8387 71.5276 41.5904C71.4034 41.0318 71.2793 40.411 71.2172 39.8523C70.7206 37.4935 70.2861 35.1346 69.7895 32.7758C69.2929 30.2307 68.7963 27.6856 68.2376 25.1405C67.8031 23.092 67.4306 20.9814 66.9961 18.933C66.6236 17.0707 66.3133 15.2084 66.0029 13.3462C65.8787 12.5392 65.8167 11.6702 65.6925 10.8632V10.3045C65.6925 10.1803 65.7546 10.1183 65.8167 9.99412C65.8787 9.93205 66.0029 9.99412 66.127 10.0562C66.2512 10.1183 66.3133 10.2424 66.4374 10.3045C66.6236 10.4907 66.8099 10.6149 66.934 10.8011C67.1823 11.0494 67.4306 11.2977 67.6168 11.6081C68.548 12.7875 69.5412 14.029 70.4723 15.2084C72.0242 17.1949 73.5761 19.2433 75.128 21.2918C75.7487 22.0988 76.3695 22.8437 76.9902 23.5886L77.9213 24.5197C77.9834 24.6439 78.1696 24.6439 78.2317 24.706C78.3559 24.768 78.48 24.706 78.5421 24.6439C78.6662 24.5818 78.7283 24.4577 78.7904 24.3335C79.0387 23.9611 79.287 23.5886 79.4732 23.2162C79.9698 22.223 80.4664 21.2918 80.963 20.2986C82.3287 17.319 83.7564 14.3394 85.1221 11.3598C86.3015 8.87677 87.4189 6.33168 88.6604 3.91074C89.0949 2.97961 89.5915 2.11056 90.0881 1.24151C90.3985 0.806979 90.6468 0.310376 91.0813 0C91.1434 0 91.2055 0 91.2675 0Z" fill="#414141"/>
<path d="M90.8329 49.474H72.9552C72.4586 49.4119 72.0241 49.1636 71.8379 48.667C71.7137 48.3566 71.7137 47.1772 71.8379 46.8668C72.0241 46.4323 72.3345 46.184 72.769 46.1219C72.8931 46.1219 73.0173 46.0598 73.1414 46.0598H108.711C108.959 46.0598 109.207 46.1219 109.393 46.3081C109.704 46.4944 109.89 46.8048 109.89 47.1772C109.89 47.5497 109.952 47.9842 109.89 48.3566C109.828 48.9153 109.393 49.4119 108.773 49.474C108.524 49.5361 108.276 49.474 108.028 49.474H100.827C97.537 49.474 94.185 49.474 90.8329 49.474Z" fill="#414141"/>
</svg>
